<?xml version="1.0" encoding="utf-8"?>
<!-- Generator: Adobe Illustrator 24.0.1, SVG Export Plug-In . SVG Version: 6.00 Build 0)  -->
<svg version="1.1" id="Layer_1" xmlns="http://www.w3.org/2000/svg" xmlns:xlink="http://www.w3.org/1999/xlink" x="0px" y="0px"
	 viewBox="0 0 595.3 841.9" style="enable-background:new 0 0 595.3 841.9;" xml:space="preserve">
<style type="text/css">
	.st0{fill:none;stroke:#C4C4C4;stroke-width:15;}
	.st1{fill:#CBCBCA;}
</style>
<circle class="st0" cx="297.6" cy="424" r="286"/>
<path class="st1" d="M233,352.4c0.7,4.2,3.9,7.4,8.1,7.4h8.3c4.9,0,8.9-4.6,8.2-9.8c-1.9-15.4-8.2-29.7-18.3-40.8
	c-7.2-8.1-11.8-18.2-13.2-29.3c-0.6-4.3-3.9-7.6-8.1-7.6h-8.2c-4.9,0-8.8,4.6-8.2,9.8c2,17.6,9,33.5,20.3,46.2
	C227.7,334.9,231.7,343.3,233,352.4z M289.1,352.4c0.7,4.2,3.9,7.4,8.1,7.4h8.3c4.9,0,8.9-4.6,8.2-9.8c-1.9-15.4-8.2-29.7-18.3-40.8
	c-7.2-8.1-11.8-18.2-13.2-29.3c-0.6-4.3-3.9-7.6-8.1-7.6h-8.2c-4.9,0-8.8,4.6-8.2,9.8c2,17.6,9,33.5,20.3,46.2
	C283.9,334.9,287.8,343.3,289.1,352.4z M369.9,377.2H185.3c-8.9,0-16.1,7.8-16.1,17.6v105c0,29,21.6,52.6,48.2,52.6h96.3
	c26.6,0,48.2-23.6,48.2-52.6h8.1c31.1,0,56.1-27.4,56.1-61.2S400.8,377.2,369.9,377.2z M369.9,464.8h-8.1v-52.6h8.1
	c13.3,0,24.1,11.8,24.1,26.2C393.9,453,383.2,464.8,369.9,464.8z"/>
</svg>
